<svg width="179" height="179" viewBox="0 0 179 179" fill="none" xmlns="http://www.w3.org/2000/svg">
<mask id="mask0_203_5" style="mask-type:alpha" maskUnits="userSpaceOnUse" x="0" y="0" width="179" height="179">
<rect width="179" height="179" fill="#D9D9D9"/>
</mask>
<g mask="url(#mask0_203_5)">
<path d="M31.723 51.9091V137H21.419V62.7116H20.9205L0.146307 76.5057V66.0355L21.419 51.9091H31.723ZM58.854 137L96.9123 61.7145V61.0497H53.0373V51.9091H107.549V61.5483L69.6566 137H58.854ZM148.983 50.7457C152.473 50.7734 155.963 51.4382 159.453 52.7401C162.943 54.0419 166.128 56.2024 169.009 59.2216C171.89 62.2131 174.203 66.2986 175.948 71.4783C177.693 76.658 178.565 83.1534 178.565 90.9645C178.565 98.5263 177.845 105.243 176.405 111.115C174.992 116.96 172.942 121.89 170.255 125.907C167.596 129.923 164.356 132.97 160.533 135.047C156.738 137.125 152.445 138.163 147.653 138.163C142.889 138.163 138.637 137.222 134.898 135.338C131.186 133.427 128.139 130.782 125.757 127.402C123.403 123.995 121.893 120.048 121.228 115.561H131.366C132.28 119.467 134.095 122.694 136.809 125.242C139.551 127.762 143.166 129.023 147.653 129.023C154.218 129.023 159.397 126.156 163.192 120.422C167.015 114.689 168.926 106.587 168.926 96.1165H168.261C166.71 98.4432 164.868 100.451 162.735 102.141C160.602 103.831 158.234 105.132 155.63 106.047C153.027 106.961 150.257 107.418 147.321 107.418C142.446 107.418 137.972 106.213 133.901 103.803C129.857 101.365 126.616 98.0277 124.178 93.7898C121.769 89.5241 120.564 84.6491 120.564 79.1648C120.564 73.9574 121.727 69.1932 124.054 64.8722C126.408 60.5234 129.704 57.0611 133.942 54.4851C138.208 51.9091 143.221 50.6626 148.983 50.7457ZM148.983 59.8864C145.493 59.8864 142.349 60.7589 139.551 62.5039C136.781 64.2212 134.579 66.5479 132.945 69.484C131.339 72.3924 130.535 75.6193 130.535 79.1648C130.535 82.7102 131.311 85.9371 132.862 88.8455C134.441 91.7262 136.587 94.0252 139.302 95.7425C142.044 97.4322 145.16 98.277 148.65 98.277C151.282 98.277 153.733 97.7646 156.004 96.7397C158.276 95.6871 160.256 94.2607 161.946 92.4602C163.663 90.6321 165.006 88.5685 165.976 86.2695C166.945 83.9428 167.43 81.5192 167.43 78.9986C167.43 75.6747 166.627 72.5586 165.02 69.6502C163.441 66.7418 161.253 64.3874 158.456 62.587C155.686 60.7866 152.528 59.8864 148.983 59.8864Z" fill="#B3B3B3"/>
</g>
</svg>
